<svg width="24" height="24" viewBox="0 0 24 24" fill="none" xmlns="http://www.w3.org/2000/svg">
<g id="kazakhstan" clip-path="url(#clip0_505_8769)">
<path id="Vector" d="M12 24C18.6274 24 24 18.6274 24 12C24 5.37258 18.6274 0 12 0C5.37258 0 0 5.37258 0 12C0 18.6274 5.37258 24 12 24Z" fill="#338AF3"/>
<path id="Vector_2" d="M18.7826 12.1305H5.21738C5.21738 13.067 6.03305 13.8262 6.96947 13.8262H6.91303C6.91303 14.7627 7.67217 15.5218 8.60869 15.5218C8.60869 16.4583 9.36783 17.2175 10.3043 17.2175H13.6957C14.6322 17.2175 15.3913 16.4583 15.3913 15.5218C16.3278 15.5218 17.087 14.7627 17.087 13.8262H17.0305C17.9669 13.8262 18.7826 13.067 18.7826 12.1305Z" fill="#FFDA44"/>
<path id="Vector_3" d="M16.6957 9.91309C16.6957 12.5064 14.5933 14.6087 12 14.6087C9.40664 14.6087 7.30434 12.5064 7.30434 9.91309" fill="#338AF3"/>
<path id="Vector_4" d="M15.5866 9.91299L14.1211 10.6024L14.9015 12.0218L13.3101 11.7173L13.1085 13.3249L12 12.1425L10.8915 13.3249L10.6899 11.7173L9.09849 12.0217L9.87886 10.6023L8.41336 9.91299L9.87891 9.22365L9.09849 7.80432L10.6898 8.10872L10.8915 6.5011L12 7.68352L13.1085 6.5011L13.3101 8.10872L14.9016 7.80432L14.1211 9.22369L15.5866 9.91299Z" fill="#FFDA44"/>
</g>
<defs>
<clipPath id="clip0_505_8769">
<rect width="24" height="24" fill="white"/>
</clipPath>
</defs>
</svg>
