<svg width="24" height="24" viewBox="0 0 24 24" fill="none" xmlns="http://www.w3.org/2000/svg">
<g id="highlighter_size_4">
<mask id="mask0_505_8870" style="mask-type:alpha" maskUnits="userSpaceOnUse" x="0" y="0" width="24" height="24">
<rect id="Bounding box" width="24" height="24" fill="#D9D9D9"/>
</mask>
<g mask="url(#mask0_505_8870)">
<path id="highlighter_size_4_2" d="M3.51472 15.9952L3.51472 8.00488C3.51472 7.72204 3.61195 7.48339 3.8064 7.28894C4.00085 7.09448 4.2395 6.99725 4.52235 6.99726H19.4777C19.7605 6.99725 19.9991 7.09448 20.1936 7.28894C20.3881 7.48339 20.4794 7.71615 20.4676 7.9872L20.4853 15.9952C20.4853 16.278 20.3881 16.5167 20.1936 16.7111C19.9991 16.9056 19.7605 17.0028 19.4777 17.0028H4.52235C4.2395 17.0028 4.00085 16.9056 3.8064 16.7111C3.61195 16.5167 3.51472 16.278 3.51472 15.9952Z" fill="#1C1B1F"/>
</g>
</g>
</svg>
