<svg width="36" height="36" viewBox="0 0 36 36" fill="none" xmlns="http://www.w3.org/2000/svg">
<g id="call">
<path id="Vector" d="M27.4921 33.7493C26.1196 33.7493 24.1917 33.2529 21.3046 31.64C17.7939 29.6712 15.0784 27.8536 11.5867 24.3711C8.22017 21.0066 6.58188 18.8283 4.28899 14.656C1.69868 9.94505 2.14024 7.47568 2.63384 6.42028C3.22165 5.15888 4.08931 4.40443 5.21079 3.6556C5.84779 3.23825 6.52189 2.88048 7.22454 2.58685C7.29485 2.55661 7.36024 2.52779 7.4186 2.50177C7.76665 2.34497 8.29399 2.10802 8.96196 2.36114C9.40774 2.52849 9.80571 2.87091 10.4287 3.48614C11.7063 4.74614 13.4521 7.55232 14.0962 8.93044C14.5286 9.85927 14.8148 10.4724 14.8155 11.16C14.8155 11.9651 14.4105 12.586 13.919 13.2561C13.8269 13.3819 13.7355 13.5022 13.6469 13.6189C13.1118 14.322 12.9944 14.5252 13.0717 14.888C13.2285 15.6172 14.3978 17.7877 16.3195 19.7051C18.2411 21.6225 20.3491 22.718 21.081 22.8741C21.4593 22.955 21.6667 22.8326 22.3924 22.2786C22.4964 22.1991 22.6033 22.1168 22.7151 22.0346C23.4646 21.477 24.0567 21.0826 24.8427 21.0826H24.847C25.5311 21.0826 26.1168 21.3793 27.0871 21.8686C28.3527 22.5071 31.2433 24.2304 32.511 25.5094C33.1277 26.131 33.4715 26.5275 33.6395 26.9726C33.8927 27.6427 33.6543 28.1679 33.4989 28.5195C33.4729 28.5779 33.4441 28.6418 33.4138 28.7129C33.1179 29.4143 32.758 30.0869 32.3388 30.7224C31.5913 31.8404 30.8341 32.7059 29.5699 33.2944C28.9207 33.6015 28.2102 33.757 27.4921 33.7493Z" fill="#828282"/>
</g>
</svg>
