<svg width="36" height="36" viewBox="0 0 36 36" fill="none" xmlns="http://www.w3.org/2000/svg">
<g id="mail">
<path id="Vector" d="M29.8125 5.62402H6.1875C5.14355 5.62514 4.14268 6.04034 3.4045 6.77852C2.66632 7.51671 2.25112 8.51758 2.25 9.56152V26.4365C2.25112 27.4805 2.66632 28.4813 3.4045 29.2195C4.14268 29.9577 5.14355 30.3729 6.1875 30.374H29.8125C30.8564 30.3729 31.8573 29.9577 32.5955 29.2195C33.3337 28.4813 33.7489 27.4805 33.75 26.4365V9.56152C33.7489 8.51758 33.3337 7.51671 32.5955 6.77852C31.8573 6.04034 30.8564 5.62514 29.8125 5.62402ZM28.8155 12.1371L18.6905 20.0121C18.493 20.1656 18.2501 20.2489 18 20.2489C17.7499 20.2489 17.507 20.1656 17.3095 20.0121L7.18453 12.1371C7.06557 12.0472 6.96565 11.9347 6.89058 11.8059C6.81551 11.6771 6.76678 11.5347 6.74722 11.3869C6.72767 11.2391 6.73768 11.0889 6.77667 10.945C6.81567 10.8011 6.88287 10.6665 6.97437 10.5488C7.06587 10.4311 7.17984 10.3328 7.30967 10.2595C7.4395 10.1863 7.58259 10.1395 7.73064 10.1221C7.87868 10.1046 8.02872 10.1167 8.17203 10.1577C8.31535 10.1987 8.44908 10.2678 8.56547 10.361L18 17.6988L27.4345 10.361C27.6704 10.1828 27.967 10.1047 28.2601 10.1435C28.5531 10.1822 28.8192 10.3348 29.0006 10.5682C29.1821 10.8016 29.2644 11.097 29.2297 11.3906C29.1951 11.6842 29.0463 11.9523 28.8155 12.1371Z" fill="#E0E0E0"/>
</g>
</svg>
