<svg width="360" height="692" viewBox="0 0 360 692" fill="none" xmlns="http://www.w3.org/2000/svg">
<path d="M-13.0981 594.43C25.3442 582.755 104.282 559.405 112.495 559.405C150.482 559.405 182.308 538.89 208.316 492.356C234.325 445.822 258.28 372.769 274.364 369.767C287.231 367.365 354.443 314.727 395.851 275.198L481.405 51.5359L530 2V107.076L495.778 188.635C500.341 227.497 506.729 309.923 495.778 328.737C482.09 352.254 439.997 413.298 423.913 413.298C407.829 413.298 364.025 430.811 344.176 448.324C324.328 465.837 306.19 498.36 298.319 512.871C292.022 524.479 279.725 548.73 274.364 559.405L196.339 594.43L-35 691" stroke="white"/>
</svg>
