<?xml version="1.0" encoding="UTF-8" standalone="no"?>
<!DOCTYPE svg PUBLIC "-//W3C//DTD SVG 1.1//EN" "http://www.w3.org/Graphics/SVG/1.1/DTD/svg11.dtd">
<svg xmlns="http://www.w3.org/2000/svg" version="1.1" viewBox="0.00 0.00 150.00 150.00">
<g stroke-width="2.00" fill="none" stroke-linecap="butt">
<path stroke="#ffa22f" vector-effect="non-scaling-stroke" d="
  M 131.71 117.50
  Q 119.32 113.63 107.73 107.86
  C 99.62 103.82 92.20 103.52 84.79 108.54
  Q 69.39 118.98 44.49 138.68"
/>
<path stroke="#ffc58f" vector-effect="non-scaling-stroke" d="
  M 118.24 84.65
  L 118.24 89.12
  A 0.93 0.92 76.2 0 1 117.75 89.94
  C 101.99 98.33 93.20 76.65 107.74 72.02
  Q 113.38 70.22 118.77 74.20
  Q 119.19 74.51 119.60 74.17
  L 122.41 71.81
  A 0.49 0.49 0.0 0 0 122.41 71.06
  C 114.19 64.09 100.22 66.03 96.05 76.29
  C 92.57 84.85 97.22 93.26 105.97 95.69
  Q 114.83 98.14 122.88 92.22
  Q 123.25 91.95 123.25 91.49
  L 123.25 80.00
  A 0.50 0.50 0.0 0 0 122.75 79.50
  L 110.75 79.50
  Q 110.00 79.50 110.00 80.25
  L 110.00 83.50
  Q 110.00 84.00 110.50 84.00
  L 117.59 84.00
  A 0.65 0.65 0.0 0 1 118.24 84.65"
/>
<path stroke="#ffc58f" vector-effect="non-scaling-stroke" d="
  M 39.00 67.94
  A 0.51 0.51 0.0 0 0 38.49 67.43
  L 33.77 67.43
  A 0.51 0.51 0.0 0 0 33.26 67.94
  L 33.26 95.48
  A 0.51 0.51 0.0 0 0 33.77 95.99
  L 38.49 95.99
  A 0.51 0.51 0.0 0 0 39.00 95.48
  L 39.00 67.94"
/>
<path stroke="#ffc58f" vector-effect="non-scaling-stroke" d="
  M 57.00 77.06
  A 0.34 0.34 0.0 0 1 57.59 76.84
  L 66.68 87.46
  A 1.44 1.44 0.0 0 0 68.86 87.46
  L 78.25 76.53
  Q 78.75 75.95 78.75 76.72
  L 78.75 95.25
  A 0.75 0.75 0.0 0 0 79.50 96.00
  L 83.50 96.00
  Q 84.00 96.00 84.00 95.50
  L 84.00 67.88
  A 0.57 0.57 0.0 0 0 83.38 67.31
  L 79.56 67.58
  Q 79.15 67.61 78.88 67.92
  L 68.16 80.49
  Q 67.79 80.92 67.43 80.49
  L 56.70 67.90
  Q 56.35 67.50 55.83 67.50
  L 52.00 67.50
  Q 51.50 67.50 51.50 68.00
  L 51.50 95.34
  Q 51.50 95.99 52.15 95.99
  L 56.37 96.00
  Q 57.00 96.01 57.00 95.38
  L 57.00 77.06"
/>
</g>
<path fill="#004284" d="
  M 92.75 47.24
  C 79.67 41.41 66.89 34.95 53.74 29.27
  C 50.72 27.95 48.78 27.30 45.40 28.24
  Q 30.00 32.52 15.87 37.58
  Q 13.79 38.32 15.11 36.55
  C 29.32 17.48 45.65 7.00 69.83 4.88
  C 102.68 2.00 133.70 24.06 142.91 55.41
  A 1.04 1.04 0.0 0 1 141.86 56.74
  Q 123.04 55.61 105.02 51.43
  Q 99.05 50.05 92.75 47.24
  Z"
/>
<path fill="#ff8b1e" d="
  M 131.71 117.50
  Q 119.32 113.63 107.73 107.86
  C 99.62 103.82 92.20 103.52 84.79 108.54
  Q 69.39 118.98 44.49 138.68
  C 15.68 124.12 0.77 97.77 4.27 65.23
  Q 5.20 56.61 7.80 49.93
  A 1.28 1.25 -1.4 0 1 8.47 49.24
  Q 26.04 41.68 43.52 34.02
  C 51.87 30.36 57.36 37.17 63.93 40.33
  Q 84.19 50.07 105.53 57.06
  Q 109.37 58.31 113.61 58.56
  Q 128.92 59.46 144.04 60.47
  A 1.21 1.21 0.0 0 1 145.16 61.48
  Q 150.24 92.42 131.71 117.50
  Z
  M 118.24 84.65
  L 118.24 89.12
  A 0.93 0.92 76.2 0 1 117.75 89.94
  C 101.99 98.33 93.20 76.65 107.74 72.02
  Q 113.38 70.22 118.77 74.20
  Q 119.19 74.51 119.60 74.17
  L 122.41 71.81
  A 0.49 0.49 0.0 0 0 122.41 71.06
  C 114.19 64.09 100.22 66.03 96.05 76.29
  C 92.57 84.85 97.22 93.26 105.97 95.69
  Q 114.83 98.14 122.88 92.22
  Q 123.25 91.95 123.25 91.49
  L 123.25 80.00
  A 0.50 0.50 0.0 0 0 122.75 79.50
  L 110.75 79.50
  Q 110.00 79.50 110.00 80.25
  L 110.00 83.50
  Q 110.00 84.00 110.50 84.00
  L 117.59 84.00
  A 0.65 0.65 0.0 0 1 118.24 84.65
  Z
  M 39.00 67.94
  A 0.51 0.51 0.0 0 0 38.49 67.43
  L 33.77 67.43
  A 0.51 0.51 0.0 0 0 33.26 67.94
  L 33.26 95.48
  A 0.51 0.51 0.0 0 0 33.77 95.99
  L 38.49 95.99
  A 0.51 0.51 0.0 0 0 39.00 95.48
  L 39.00 67.94
  Z
  M 57.00 77.06
  A 0.34 0.34 0.0 0 1 57.59 76.84
  L 66.68 87.46
  A 1.44 1.44 0.0 0 0 68.86 87.46
  L 78.25 76.53
  Q 78.75 75.95 78.75 76.72
  L 78.75 95.25
  A 0.75 0.75 0.0 0 0 79.50 96.00
  L 83.50 96.00
  Q 84.00 96.00 84.00 95.50
  L 84.00 67.88
  A 0.57 0.57 0.0 0 0 83.38 67.31
  L 79.56 67.58
  Q 79.15 67.61 78.88 67.92
  L 68.16 80.49
  Q 67.79 80.92 67.43 80.49
  L 56.70 67.90
  Q 56.35 67.50 55.83 67.50
  L 52.00 67.50
  Q 51.50 67.50 51.50 68.00
  L 51.50 95.34
  Q 51.50 95.99 52.15 95.99
  L 56.37 96.00
  Q 57.00 96.01 57.00 95.38
  L 57.00 77.06
  Z"
/>
<path fill="#ffffff" d="
  M 117.59 84.00
  L 110.50 84.00
  Q 110.00 84.00 110.00 83.50
  L 110.00 80.25
  Q 110.00 79.50 110.75 79.50
  L 122.75 79.50
  A 0.50 0.50 0.0 0 1 123.25 80.00
  L 123.25 91.49
  Q 123.25 91.95 122.88 92.22
  Q 114.83 98.14 105.97 95.69
  C 97.22 93.26 92.57 84.85 96.05 76.29
  C 100.22 66.03 114.19 64.09 122.41 71.06
  A 0.49 0.49 0.0 0 1 122.41 71.81
  L 119.60 74.17
  Q 119.19 74.51 118.77 74.20
  Q 113.38 70.22 107.74 72.02
  C 93.20 76.65 101.99 98.33 117.75 89.94
  A 0.93 0.92 76.2 0 0 118.24 89.12
  L 118.24 84.65
  A 0.65 0.65 0.0 0 0 117.59 84.00
  Z"
/>
<rect fill="#ffffff" x="33.26" y="67.43" width="5.74" height="28.56" rx="0.51"/>
<path fill="#ffffff" d="
  M 57.00 77.06
  L 57.00 95.38
  Q 57.00 96.01 56.37 96.00
  L 52.15 95.99
  Q 51.50 95.99 51.50 95.34
  L 51.50 68.00
  Q 51.50 67.50 52.00 67.50
  L 55.83 67.50
  Q 56.35 67.50 56.70 67.90
  L 67.43 80.49
  Q 67.79 80.92 68.16 80.49
  L 78.88 67.92
  Q 79.15 67.61 79.56 67.58
  L 83.38 67.31
  A 0.57 0.57 0.0 0 1 84.00 67.88
  L 84.00 95.50
  Q 84.00 96.00 83.50 96.00
  L 79.50 96.00
  A 0.75 0.75 0.0 0 1 78.75 95.25
  L 78.75 76.72
  Q 78.75 75.95 78.25 76.53
  L 68.86 87.46
  A 1.44 1.44 0.0 0 1 66.68 87.46
  L 57.59 76.84
  A 0.34 0.34 0.0 0 0 57.00 77.06
  Z"
/>
<path fill="#ffb93f" d="
  M 131.71 117.50
  C 123.04 130.63 105.01 140.52 90.69 143.72
  Q 67.76 148.85 44.49 138.68
  Q 69.39 118.98 84.79 108.54
  C 92.20 103.52 99.62 103.82 107.73 107.86
  Q 119.32 113.63 131.71 117.50
  Z"
/>
</svg>
