<svg width="92" height="92" viewBox="0 0 92 92" fill="none" xmlns="http://www.w3.org/2000/svg">
<g id="eco">
<mask id="mask0_510_10268" style="mask-type:alpha" maskUnits="userSpaceOnUse" x="0" y="0" width="92" height="92">
<rect id="Bounding box" width="92" height="92" fill="#D9D9D9"/>
</mask>
<g mask="url(#mask0_510_10268)">
<path id="eco_2" d="M43.125 84.3321C41.0167 84.3321 38.8924 84.0925 36.7521 83.6133C34.6118 83.1342 32.4236 82.4474 30.1875 81.5529C30.9542 73.8224 33.1903 66.6029 36.8958 59.8946C40.6014 53.1863 45.3611 47.2765 51.175 42.1654C44.1472 45.7432 38.0618 50.471 32.9188 56.3488C27.7757 62.2265 24.1819 68.9349 22.1375 76.4738C21.8819 76.2821 21.6424 76.0745 21.4187 75.8509L20.7 75.1321C17.6972 72.1293 15.4132 68.7752 13.8479 65.0696C12.2826 61.364 11.5 57.4988 11.5 53.4738C11.5 49.1293 12.3625 44.9765 14.0875 41.0154C15.8125 37.0543 18.2083 33.5404 21.275 30.4738C26.45 25.2988 33.1583 21.9286 41.4 20.3634C49.6417 18.7981 61.2056 18.6543 76.0917 19.9321C77.2417 35.2015 77.05 46.8453 75.5167 54.8633C73.9833 62.8814 70.6611 69.446 65.55 74.5571C62.4194 77.6877 58.9215 80.0995 55.0563 81.7925C51.191 83.4856 47.2139 84.3321 43.125 84.3321Z" fill="#FFB940"/>
</g>
</g>
</svg>
